<svg xmlns="http://www.w3.org/2000/svg" width="437" height="113" viewBox="0 0 437 113" clip-rule="evenodd" fill-rule="evenodd" stroke-linejoin="round" stroke-miterlimit="2"><style>
@keyframes a0_t { 0% { transform: translate(32px,19px) scale(0,0) translate(-32px,-19px); animation-timing-function: cubic-bezier(0,0,.6,1); } 28% { transform: translate(32px,19px) scale(1,1) translate(-32px,-19px); } 100% { transform: translate(32px,19px) scale(1,1) translate(-32px,-19px); } }
@keyframes a1_t { 0% { transform: translate(60px,48.5px) scale(0,0) translate(-60px,-48.5px); } 8% { transform: translate(60px,48.5px) scale(0,0) translate(-60px,-48.5px); animation-timing-function: cubic-bezier(0,0,.6,1); } 36% { transform: translate(60px,48.5px) scale(1,1) translate(-60px,-48.5px); } 100% { transform: translate(60px,48.5px) scale(1,1) translate(-60px,-48.5px); } }
@keyframes a2_t { 0% { transform: translate(81.7px,24px) scale(0,0); } 20% { transform: translate(81.7px,24px) scale(0,0); animation-timing-function: cubic-bezier(0,0,.6,1); } 48% { transform: translate(81.7px,24px) scale(1,1); } 100% { transform: translate(81.7px,24px) scale(1,1); } }
@keyframes a3_t { 0% { transform: translate(130.5px,69px) scale(0,0) translate(-130.5px,-69px); } 36% { transform: translate(130.5px,69px) scale(0,0) translate(-130.5px,-69px); animation-timing-function: cubic-bezier(0,0,.6,1); } 56% { transform: translate(130.5px,69px) scale(1,1) translate(-130.5px,-69px); } 100% { transform: translate(130.5px,69px) scale(1,1) translate(-130.5px,-69px); } }
@keyframes a4_t { 0% { transform: translate(168.9px,68.5px) scale(0,0) translate(-168.9px,-68.5px); } 40% { transform: translate(168.9px,68.5px) scale(0,0) translate(-168.9px,-68.5px); animation-timing-function: cubic-bezier(0,0,.6,1); } 60% { transform: translate(168.9px,68.5px) scale(1,1) translate(-168.9px,-68.5px); } 100% { transform: translate(168.9px,68.5px) scale(1,1) translate(-168.9px,-68.5px); } }
@keyframes a5_t { 0% { transform: translate(220.8px,69px) scale(0,0) translate(-220.8px,-69px); } 44% { transform: translate(220.8px,69px) scale(0,0) translate(-220.8px,-69px); animation-timing-function: cubic-bezier(0,0,.6,1); } 64% { transform: translate(220.8px,69px) scale(1,1) translate(-220.8px,-69px); } 100% { transform: translate(220.8px,69px) scale(1,1) translate(-220.8px,-69px); } }
@keyframes a6_t { 0% { transform: translate(260px,69px) scale(0,0) translate(-260px,-69px); } 48% { transform: translate(260px,69px) scale(0,0) translate(-260px,-69px); animation-timing-function: cubic-bezier(0,0,.6,1); } 68% { transform: translate(260px,69px) scale(1,1) translate(-260px,-69px); } 100% { transform: translate(260px,69px) scale(1,1) translate(-260px,-69px); } }
@keyframes a7_t { 0% { transform: translate(298.2px,69px) scale(0,0) translate(-298.2px,-69px); } 52% { transform: translate(298.2px,69px) scale(0,0) translate(-298.2px,-69px); animation-timing-function: cubic-bezier(0,0,.6,1); } 72% { transform: translate(298.2px,69px) scale(1,1) translate(-298.2px,-69px); } 100% { transform: translate(298.2px,69px) scale(1,1) translate(-298.2px,-69px); } }
@keyframes a8_t { 0% { transform: translate(347px,69px) scale(0,0) translate(-347px,-69px); } 56% { transform: translate(347px,69px) scale(0,0) translate(-347px,-69px); animation-timing-function: cubic-bezier(0,0,.6,1); } 76% { transform: translate(347px,69px) scale(1,1) translate(-347px,-69px); } 100% { transform: translate(347px,69px) scale(1,1) translate(-347px,-69px); } }
@keyframes a9_t { 0% { transform: translate(393.2px,69px) scale(0,0) translate(-393.2px,-69px); } 60% { transform: translate(393.2px,69px) scale(0,0) translate(-393.2px,-69px); animation-timing-function: cubic-bezier(0,0,.6,1); } 80% { transform: translate(393.2px,69px) scale(1,1) translate(-393.2px,-69px); } 100% { transform: translate(393.2px,69px) scale(1,1) translate(-393.2px,-69px); } }
</style><g><path d="M43.4 20.6c0-2.8-1.1-5.5-3.1-7.4c-1.9-2-4.6-3.1-7.4-3.1c0 0 0 0 0 0c-5.8 0-10.5 4.7-10.5 10.5c0 17.8 0 53.9 0 71.7c0 5.8 4.7 10.5 10.5 10.5c0 0 0 0 0 0c2.8 0 5.5-1.1 7.4-3.1c2-1.9 3.1-4.6 3.1-7.4c0-17.8 0-53.9 0-71.7Z" fill="#0978ff" transform="translate(32,19) scale(0,0) translate(-32,-19)" style="animation: 2.5s linear infinite both a0_t;"/><path d="M69.3 42.8c-3.4-4.9-10.2-6.1-15.1-2.7c0 0 0 0 0 0c-4.9 3.5-6.1 10.2-2.6 15.1c8 11.5 21.9 31.5 30 43c3.4 4.9 10.1 6.1 15.1 2.7c0 0 0 0 0 0c4.9-3.5 6.1-10.2 2.6-15.1c-8-11.5-21.9-31.5-30-43Z" fill="#0978ff" transform="translate(60,48.5) scale(0,0) translate(-60,-48.5)" style="animation: 2.5s linear infinite both a1_t;"/><ellipse rx="13.9" ry="13.9" fill="#0978ff" transform="translate(81.7,24) scale(0,0)" style="animation: 2.5s linear infinite both a2_t;"/></g><g><path d="M125.3 91v-44.1h11.6v44.1h-11.6Zm6-60.7c3.3 0 6 2.7 6 6c0 3.4-2.7 6.1-6 6.1c-3.3 0-6-2.7-6-6.1c0-3.3 2.7-6 6-6Z" fill="#fff" fill-rule="nonzero" transform="translate(130.5,69) scale(0,0) translate(-130.5,-69)" style="animation: 2.5s linear infinite both a3_t;"/><path d="M189 91h-11.7v-22.5c0-4.7-0.2-7.8-0.7-9.2c-0.5-1.4-1.3-2.5-2.5-3.3c-1.1-0.7-2.4-1.1-4-1.1c-2 0-3.8 .5-5.4 1.6c-1.7 1.1-2.8 2.6-3.3 4.4c-0.6 1.9-0.9 5.2-0.9 10.2v19.9h-11.7v-44.1h10.8v6.5c3.9-5 8.7-7.4 14.6-7.4c2.5 0 4.9 .4 7 1.3c2.1 1 3.8 2.2 4.8 3.6c1.1 1.4 1.9 3.1 2.3 4.9c.5 1.8 .7 4.4 .7 7.8v27.4Z" fill="#fff" fill-rule="nonzero" transform="translate(168.9,68.5) scale(0,0) translate(-168.9,-68.5)" style="animation: 2.5s linear infinite both a4_t;"/><path d="M198.1 68.4c0-3.9 1-7.7 2.9-11.3c1.9-3.6 4.6-6.4 8.1-8.3c3.5-1.9 7.4-2.8 11.7-2.8c6.7 0 12.1 2.1 16.4 6.4c4.3 4.4 6.4 9.8 6.4 16.5c0 6.6-2.2 12.2-6.5 16.5c-4.3 4.4-9.7 6.6-16.2 6.6c-4 0-7.9-0.9-11.6-2.7c-3.6-1.8-6.4-4.5-8.3-8c-1.9-3.6-2.9-7.9-2.9-12.9Zm12 .6c0 4.4 1 7.7 3.1 10c2 2.4 4.6 3.5 7.6 3.5c3.1 0 5.6-1.1 7.7-3.5c2.1-2.3 3.1-5.7 3.1-10.1c0-4.3-1-7.6-3.1-10c-2.1-2.3-4.6-3.4-7.7-3.4c-3 0-5.6 1.1-7.6 3.4c-2.1 2.4-3.1 5.7-3.1 10.1Z" fill="#fff" fill-rule="nonzero" transform="translate(220.8,69) scale(0,0) translate(-220.8,-69)" style="animation: 2.5s linear infinite both a5_t;"/><path d="M272.9 46.9v9.3h-7.9v17.8c0 3.6 0 5.7 .2 6.3c.1 .6 .5 1.1 1 1.5c.6 .4 1.2 .5 2 .5c1.1 0 2.6-0.3 4.7-1.1l1 9.1c-2.7 1.1-5.8 1.7-9.2 1.7c-2.1 0-4-0.3-5.7-1c-1.7-0.7-2.9-1.7-3.7-2.8c-0.8-1.1-1.4-2.6-1.7-4.5c-0.2-1.4-0.3-4.1-0.3-8.2v-19.3h-5.4v-9.3h5.4v-8.7l11.7-6.8v15.5h7.9Z" fill="#fff" fill-rule="nonzero" transform="translate(260,69) scale(0,0) translate(-260,-69)" style="animation: 2.5s linear infinite both a6_t;"/><path d="M306.6 77l11.6 1.9c-1.5 4.3-3.9 7.6-7.1 9.8c-3.2 2.2-7.3 3.3-12.1 3.3c-7.7 0-13.3-2.5-17-7.5c-2.9-4-4.4-9.1-4.4-15.2c0-7.3 1.9-13 5.8-17.1c3.8-4.2 8.6-6.2 14.4-6.2c6.6 0 11.8 2.1 15.6 6.4c3.8 4.4 5.6 11 5.4 19.9h-29.2c.1 3.5 1 6.2 2.8 8.1c1.8 1.9 4 2.9 6.7 2.9c1.8 0 3.4-0.5 4.6-1.5c1.3-1 2.2-2.6 2.9-4.8Zm.6-11.8c-0.1-3.4-0.9-5.9-2.6-7.7c-1.7-1.7-3.7-2.6-6.1-2.6c-2.5 0-4.6 .9-6.3 2.8c-1.6 1.8-2.4 4.3-2.4 7.5h17.4Z" fill="#fff" fill-rule="nonzero" transform="translate(298.2,69) scale(0,0) translate(-298.2,-69)" style="animation: 2.5s linear infinite both a7_t;"/><path d="M327.9 91v-60.8h11.6v32.3l13.7-15.6h14.4l-15.1 16.2l16.1 27.9h-12.5l-11.1-19.8l-5.5 5.7v14.1h-11.6Z" fill="#fff" fill-rule="nonzero" transform="translate(347,69) scale(0,0) translate(-347,-69)" style="animation: 2.5s linear infinite both a8_t;"/><path d="M384.3 60.4l-10.6-1.9c1.2-4.3 3.2-7.4 6.1-9.5c3-2 7.3-3 13-3c5.2 0 9.1 .6 11.6 1.8c2.6 1.2 4.4 2.8 5.4 4.7c1 1.9 1.6 5.4 1.6 10.4l-0.2 13.6c0 3.9 .2 6.8 .6 8.6c.4 1.9 1.1 3.8 2.1 5.9h-11.6c-0.3-0.8-0.6-1.9-1.1-3.4c-0.2-0.7-0.3-1.2-0.4-1.4c-2 1.9-4.1 3.4-6.4 4.4c-2.3 .9-4.7 1.4-7.2 1.4c-4.6 0-8.2-1.2-10.8-3.7c-2.6-2.4-3.9-5.5-3.9-9.3c0-2.5 .6-4.7 1.8-6.7c1.2-1.9 2.8-3.4 5-4.5c2.1-1 5.2-1.9 9.3-2.7c5.4-1 9.2-2 11.3-2.8v-1.2c0-2.2-0.6-3.8-1.7-4.8c-1.1-0.9-3.2-1.4-6.2-1.4c-2.1 0-3.7 .4-4.9 1.2c-1.2 .8-2.1 2.2-2.8 4.3Zm15.6 9.5c-1.5 .5-3.9 1-7.1 1.7c-3.2 .7-5.4 1.4-6.4 2.1c-1.5 1.1-2.2 2.4-2.2 4.1c0 1.6 .6 3 1.8 4.2c1.2 1.2 2.8 1.8 4.6 1.8c2.1 0 4.1-0.7 6.1-2.1c1.4-1 2.3-2.3 2.7-3.8c.3-1 .5-2.9 .5-5.7v-2.3Z" fill="#fff" fill-rule="nonzero" transform="translate(393.2,69) scale(0,0) translate(-393.2,-69)" style="animation: 2.5s linear infinite both a9_t;"/></g></svg>