<?xml version="1.0" encoding="UTF-8" standalone="no"?><!DOCTYPE svg PUBLIC "-//W3C//DTD SVG 1.1//EN" "http://www.w3.org/Graphics/SVG/1.1/DTD/svg11.dtd"><svg width="100%" height="100%" viewBox="0 0 437 113" version="1.1" xmlns="http://www.w3.org/2000/svg" xmlns:xlink="http://www.w3.org/1999/xlink" xml:space="preserve" xmlns:serif="http://www.serif.com/" style="fill-rule:evenodd;clip-rule:evenodd;stroke-linejoin:round;stroke-miterlimit:2;"><rect x="0" y="0" width="436.305" height="112.902"/><g><g><path d="M43.423,20.587c-0,-2.784 -1.106,-5.454 -3.075,-7.423c-1.969,-1.968 -4.639,-3.075 -7.423,-3.075c-0.001,0 -0.001,0 -0.002,0c-5.799,0 -10.5,4.701 -10.5,10.5c-0,17.844 -0,53.88 -0,71.724c-0,5.799 4.701,10.5 10.5,10.5c0.001,-0 0.001,-0 0.002,-0c2.784,-0 5.454,-1.106 7.423,-3.075c1.969,-1.969 3.075,-4.639 3.075,-7.423c-0,-17.844 -0,-53.884 -0,-71.728Z" style="fill:#0978ff;"/><circle cx="81.682" cy="23.971" r="13.882" style="fill:#0978ff;"/><path d="M69.332,42.818c-3.43,-4.909 -10.19,-6.108 -15.1,-2.678c-0.001,0.001 -0.002,0.001 -0.003,0.002c-4.909,3.43 -6.108,10.191 -2.678,15.1c8.038,11.504 21.963,31.433 30.001,42.937c3.43,4.909 10.19,6.108 15.1,2.678c0.001,-0.001 0.002,-0.001 0.003,-0.002c4.909,-3.43 6.108,-10.191 2.678,-15.1c-8.038,-11.504 -21.963,-31.433 -30.001,-42.937Z" style="fill:#0978ff;"/></g><g><path d="M125.264,91.024l0,-44.077l11.663,0l-0,44.077l-11.663,0Zm6.031,-60.725c3.328,-0 6.03,2.702 6.03,6.03c0,3.328 -2.702,6.031 -6.03,6.031c-3.329,-0 -6.031,-2.703 -6.031,-6.031c0,-3.328 2.702,-6.03 6.031,-6.03Z" style="fill:#fff;fill-rule:nonzero;"/><path d="M188.973,91.024l-11.663,0l0,-22.495c0,-4.759 -0.249,-7.837 -0.747,-9.235c-0.498,-1.397 -1.307,-2.483 -2.428,-3.258c-1.12,-0.774 -2.469,-1.162 -4.047,-1.162c-2.019,0 -3.832,0.554 -5.437,1.66c-1.604,1.107 -2.704,2.574 -3.299,4.4c-0.595,1.826 -0.892,5.202 -0.892,10.127l-0,19.963l-11.663,0l-0,-44.077l10.833,0l-0,6.475c3.846,-4.981 8.688,-7.471 14.526,-7.471c2.573,-0 4.925,0.463 7.056,1.39c2.13,0.927 3.742,2.11 4.835,3.549c1.093,1.439 1.854,3.071 2.282,4.897c0.429,1.827 0.644,4.441 0.644,7.845l-0,27.392Z" style="fill:#fff;fill-rule:nonzero;"/><path d="M198.104,68.363c-0,-3.874 0.954,-7.623 2.863,-11.248c1.91,-3.624 4.614,-6.391 8.114,-8.3c3.501,-1.909 7.409,-2.864 11.725,-2.864c6.669,-0 12.133,2.165 16.394,6.495c4.261,4.331 6.392,9.802 6.392,16.415c-0,6.668 -2.151,12.195 -6.454,16.581c-4.303,4.385 -9.719,6.578 -16.249,6.578c-4.039,0 -7.892,-0.913 -11.559,-2.739c-3.666,-1.826 -6.453,-4.503 -8.363,-8.031c-1.909,-3.528 -2.863,-7.823 -2.863,-12.887Zm11.953,0.623c-0,4.371 1.037,7.719 3.113,10.044c2.075,2.324 4.634,3.486 7.678,3.486c3.043,-0 5.596,-1.162 7.657,-3.486c2.062,-2.325 3.092,-5.7 3.092,-10.127c0,-4.317 -1.03,-7.637 -3.092,-9.961c-2.061,-2.325 -4.614,-3.487 -7.657,-3.487c-3.044,0 -5.603,1.162 -7.678,3.487c-2.076,2.324 -3.113,5.672 -3.113,10.044Z" style="fill:#fff;fill-rule:nonzero;"/><path d="M272.935,46.947l0,9.297l-7.969,-0l0,17.764c0,3.597 0.077,5.693 0.229,6.287c0.152,0.595 0.498,1.086 1.037,1.474c0.54,0.387 1.197,0.581 1.972,0.581c1.079,-0 2.642,-0.374 4.69,-1.121l0.996,9.048c-2.712,1.162 -5.783,1.743 -9.214,1.743c-2.103,0 -3.998,-0.353 -5.686,-1.058c-1.688,-0.706 -2.926,-1.619 -3.715,-2.739c-0.788,-1.121 -1.335,-2.636 -1.639,-4.545c-0.249,-1.356 -0.374,-4.095 -0.374,-8.218l0,-19.216l-5.354,-0l0,-9.297l5.354,0l0,-8.757l11.704,-6.807l0,15.564l7.969,0Z" style="fill:#fff;fill-rule:nonzero;"/><path d="M306.553,76.996l11.621,1.951c-1.494,4.261 -3.853,7.505 -7.076,9.732c-3.223,2.228 -7.256,3.341 -12.098,3.341c-7.665,0 -13.337,-2.504 -17.017,-7.512c-2.905,-4.012 -4.358,-9.075 -4.358,-15.19c0,-7.305 1.909,-13.026 5.728,-17.162c3.818,-4.137 8.646,-6.205 14.485,-6.205c6.557,-0 11.731,2.165 15.522,6.495c3.791,4.331 5.603,10.964 5.437,19.901l-29.219,0c0.083,3.459 1.024,6.15 2.823,8.073c1.798,1.923 4.039,2.884 6.723,2.884c1.826,0 3.362,-0.498 4.607,-1.494c1.245,-0.996 2.186,-2.601 2.822,-4.814Zm0.664,-11.787c-0.083,-3.376 -0.954,-5.942 -2.614,-7.699c-1.661,-1.757 -3.68,-2.636 -6.06,-2.636c-2.545,0 -4.648,0.927 -6.309,2.781c-1.66,1.854 -2.476,4.372 -2.448,7.554l17.431,-0Z" style="fill:#fff;fill-rule:nonzero;"/><path d="M327.886,91.024l0,-60.845l11.663,0l-0,32.29l13.655,-15.522l14.36,0l-15.066,16.104l16.145,27.973l-12.576,0l-11.081,-19.797l-5.437,5.686l-0,14.111l-11.663,0Z" style="fill:#fff;fill-rule:nonzero;"/><path d="M384.29,60.394l-10.583,-1.909c1.189,-4.261 3.237,-7.415 6.142,-9.463c2.906,-2.047 7.222,-3.071 12.949,-3.071c5.202,-0 9.076,0.616 11.622,1.847c2.545,1.231 4.337,2.794 5.374,4.69c1.038,1.895 1.557,5.375 1.557,10.438l-0.125,13.613c0,3.874 0.187,6.731 0.56,8.571c0.374,1.84 1.073,3.811 2.096,5.914l-11.538,0c-0.304,-0.775 -0.678,-1.923 -1.12,-3.445c-0.194,-0.691 -0.332,-1.148 -0.415,-1.369c-1.992,1.937 -4.123,3.389 -6.392,4.358c-2.269,0.968 -4.69,1.452 -7.263,1.452c-4.538,0 -8.114,-1.231 -10.729,-3.694c-2.615,-2.462 -3.922,-5.575 -3.922,-9.338c0,-2.49 0.595,-4.711 1.785,-6.661c1.189,-1.951 2.857,-3.445 5.001,-4.483c2.144,-1.037 5.236,-1.944 9.276,-2.718c5.451,-1.024 9.228,-1.979 11.331,-2.864l-0,-1.162c-0,-2.241 -0.554,-3.839 -1.661,-4.794c-1.106,-0.954 -3.195,-1.432 -6.267,-1.432c-2.075,0 -3.693,0.408 -4.856,1.225c-1.162,0.816 -2.102,2.248 -2.822,4.295Zm15.606,9.463c-1.495,0.498 -3.86,1.093 -7.098,1.785c-3.237,0.692 -5.354,1.369 -6.35,2.034c-1.521,1.079 -2.282,2.448 -2.282,4.108c-0,1.633 0.608,3.044 1.826,4.234c1.217,1.19 2.767,1.784 4.648,1.784c2.103,0 4.109,-0.691 6.018,-2.075c1.411,-1.051 2.338,-2.338 2.781,-3.86c0.304,-0.996 0.457,-2.891 0.457,-5.686l-0,-2.324Z" style="fill:#fff;fill-rule:nonzero;"/></g></g></svg>