<svg width="25" height="25" viewBox="0 0 25 25" fill="none" xmlns="http://www.w3.org/2000/svg">
<path d="M12.5 21.875C11.2689 21.875 10.0498 21.6325 8.91234 21.1614C7.77492 20.6902 6.74142 19.9997 5.87087 19.1291C5.00032 18.2586 4.30977 17.2251 3.83863 16.0877C3.36749 14.9502 3.125 13.7311 3.125 12.5C3.125 11.2689 3.36749 10.0498 3.83863 8.91234C4.30977 7.77492 5.00032 6.74142 5.87087 5.87087C6.74142 5.00032 7.77492 4.30977 8.91234 3.83863C10.0498 3.36749 11.2689 3.125 12.5 3.125M12.5 21.875C13.7311 21.875 14.9502 21.6325 16.0877 21.1614C17.2251 20.6902 18.2586 19.9997 19.1291 19.1291C19.9997 18.2586 20.6902 17.2251 21.1614 16.0877C21.6325 14.9502 21.875 13.7311 21.875 12.5C21.875 11.2689 21.6325 10.0498 21.1614 8.91234C20.6902 7.77492 19.9997 6.74142 19.1291 5.87087C18.2586 5.00032 17.2251 4.30977 16.0877 3.83863C14.9502 3.36749 13.7311 3.125 12.5 3.125M12.5 21.875V3.125M12.5 9.375L17.3437 4.53125M12.5 14.8958L20.1771 7.21875M12.5 20.4167L21.7187 11.1979" stroke="white" stroke-width="2" stroke-linecap="round" stroke-linejoin="round"/>
</svg>
